<svg width="30" height="26" viewBox="0 0 30 26" fill="none" xmlns="http://www.w3.org/2000/svg">
<path d="M25.9499 1.93906C25.6334 1.00544 24.7473 0.34082 23.7029 0.34082H6.29627C5.25188 0.34082 4.38155 1.00544 4.04924 1.93906L0.757812 11.4177V24.0771C0.757812 24.9474 1.4699 25.6595 2.34023 25.6595H3.92265C4.79298 25.6595 5.50507 24.9474 5.50507 24.0771V22.4947H24.4941V24.0771C24.4941 24.9474 25.2062 25.6595 26.0765 25.6595H27.6589C28.5292 25.6595 29.2413 24.9474 29.2413 24.0771V11.4177L25.9499 1.93906ZM6.29627 17.7474C4.98287 17.7474 3.92265 16.6872 3.92265 15.3738C3.92265 14.0604 4.98287 13.0002 6.29627 13.0002C7.60968 13.0002 8.6699 14.0604 8.6699 15.3738C8.6699 16.6872 7.60968 17.7474 6.29627 17.7474ZM23.7029 17.7474C22.3895 17.7474 21.3292 16.6872 21.3292 15.3738C21.3292 14.0604 22.3895 13.0002 23.7029 13.0002C25.0163 13.0002 26.0765 14.0604 26.0765 15.3738C26.0765 16.6872 25.0163 17.7474 23.7029 17.7474ZM3.92265 9.83533L6.29627 2.71445H23.7029L26.0765 9.83533H3.92265Z" fill="#E9F6FF"/>
</svg>
