<svg width="30" height="32" viewBox="0 0 30 32" fill="none" xmlns="http://www.w3.org/2000/svg">
<path d="M26.2987 17.4873C26.362 17.0125 26.3937 16.522 26.3937 15.9998C26.3937 15.4934 26.362 14.9871 26.2829 14.5123L29.4952 12.0121C29.78 11.7906 29.8592 11.3633 29.6851 11.0468L26.6468 5.79321C26.457 5.44508 26.0613 5.33431 25.7132 5.44508L21.9312 6.9642C21.14 6.36288 20.3013 5.85651 19.3677 5.47673L18.798 1.45738C18.7348 1.0776 18.4183 0.808594 18.0385 0.808594H11.962C11.5822 0.808594 11.2816 1.0776 11.2183 1.45738L10.6486 5.47673C9.71497 5.85651 8.86047 6.3787 8.08508 6.9642L4.30311 5.44508C3.95497 5.31848 3.55937 5.44508 3.36948 5.79321L0.347062 11.0468C0.157172 11.3791 0.220468 11.7906 0.536952 12.0121L3.74926 14.5123C3.67014 14.9871 3.60684 15.5093 3.60684 15.9998C3.60684 16.4904 3.63849 17.0125 3.71761 17.4873L0.505304 19.9875C0.220468 20.209 0.141348 20.6363 0.315414 20.9528L3.35366 26.2064C3.54355 26.5545 3.93915 26.6653 4.28728 26.5545L8.06926 25.0354C8.86047 25.6367 9.69915 26.1431 10.6328 26.5229L11.2024 30.5422C11.2816 30.922 11.5822 31.191 11.962 31.191H18.0385C18.4183 31.191 18.7348 30.922 18.7822 30.5422L19.3519 26.5229C20.2855 26.1431 21.14 25.6367 21.9154 25.0354L25.6974 26.5545C26.0455 26.6811 26.4411 26.5545 26.631 26.2064L29.6693 20.9528C29.8592 20.6046 29.78 20.209 29.4794 19.9875L26.2987 17.4873ZM15.0002 21.6965C11.8671 21.6965 9.30354 19.133 9.30354 15.9998C9.30354 12.8666 11.8671 10.3031 15.0002 10.3031C18.1334 10.3031 20.697 12.8666 20.697 15.9998C20.697 19.133 18.1334 21.6965 15.0002 21.6965Z" fill="#E9F6FF"/>
</svg>
