<svg width="38" height="38" viewBox="0 0 38 38" fill="none" xmlns="http://www.w3.org/2000/svg">
<path d="M37.6381 20.2581L35.4193 16.7583L36.7354 12.8305C36.8222 12.5707 36.8166 12.2889 36.7194 12.0328C36.6223 11.7767 36.4396 11.5621 36.2023 11.4253L32.6119 9.35549L31.9517 5.26555C31.9072 4.99513 31.771 4.74829 31.5659 4.56658C31.3607 4.38486 31.0993 4.27938 30.8255 4.26789L26.6844 4.10576L24.1998 0.789983C24.0356 0.570559 23.8005 0.414823 23.5344 0.349304C23.2683 0.283784 22.9878 0.312532 22.7405 0.430652L18.9997 2.20978L15.2574 0.429192C15.0098 0.312345 14.7294 0.284429 14.4636 0.350149C14.1978 0.415868 13.9628 0.571204 13.7982 0.789983L11.3135 4.10576L7.17246 4.26789C6.89888 4.27883 6.63749 4.38397 6.43252 4.56551C6.22756 4.74705 6.09163 4.99383 6.04773 5.26409L5.38749 9.35403L1.79711 11.4238C1.55956 11.5604 1.37656 11.7749 1.27912 12.031C1.18168 12.2872 1.17581 12.5691 1.2625 12.829L2.57858 16.7568L0.361248 20.2581C0.21498 20.4899 0.15326 20.765 0.186531 21.0371C0.219803 21.3091 0.346022 21.5613 0.543835 21.7509L3.53387 24.6183L3.19791 28.7462C3.17557 29.0193 3.24827 29.2918 3.40371 29.5175C3.55915 29.7432 3.7878 29.9083 4.05096 29.9849L8.03135 31.1315L9.65126 34.9454C9.75761 35.1981 9.94847 35.4061 10.1912 35.5337C10.4339 35.6614 10.7134 35.7007 10.9819 35.645L15.0427 34.8125L18.2474 37.4373C18.4651 37.6141 18.7324 37.7061 18.9997 37.7061C19.267 37.7061 19.5328 37.6141 19.752 37.4373L22.9567 34.8125L27.0174 35.645C27.5681 35.7619 28.1276 35.4654 28.3481 34.9454L29.968 31.1315L33.9484 29.9849C34.2117 29.9086 34.4405 29.7435 34.596 29.5178C34.7515 29.292 34.8241 29.0194 34.8015 28.7462L34.4655 24.6183L37.4556 21.7509C37.6534 21.5613 37.7796 21.3091 37.8129 21.0371C37.8461 20.765 37.7844 20.4899 37.6381 20.2581ZM27.5842 14.5453L19.2714 26.9992C18.9573 27.4637 18.4709 27.7748 17.9874 27.7748C17.5054 27.7748 16.9664 27.5046 16.6231 27.1599L10.5204 20.9592C10.3203 20.7541 10.2084 20.4789 10.2084 20.1924C10.2084 19.9058 10.3203 19.6307 10.5204 19.4255L12.0263 17.8918C12.125 17.7925 12.2424 17.7138 12.3716 17.6601C12.5008 17.6063 12.6394 17.5786 12.7793 17.5786C12.9193 17.5786 13.0579 17.6063 13.1871 17.6601C13.3163 17.7138 13.4336 17.7925 13.5323 17.8918L17.5039 21.9262L24.0537 12.1133C24.1313 11.9963 24.2315 11.8959 24.3483 11.818C24.4652 11.7401 24.5964 11.6862 24.7342 11.6596C24.8721 11.6329 25.0139 11.634 25.1514 11.6628C25.2888 11.6915 25.4192 11.7473 25.5348 11.827L27.3008 13.0408C27.7872 13.3768 27.9128 14.0531 27.5842 14.5453Z" fill="#E9F6FF"/>
</svg>
